<svg width="280" height="94" viewBox="0 0 280 94" fill="none" xmlns="http://www.w3.org/2000/svg">
<path d="M34.627 19.9102C30.916 20.1055 27.791 21.5215 25.252 24.1582C22.8105 26.7949 21.0527 29.8223 19.9785 33.2402C18.9043 36.5605 18.3672 39.9785 18.3672 43.4941C18.3672 47.0098 18.8555 50.4766 19.832 53.8945C20.9062 57.3125 22.7129 60.3398 25.252 62.9766C27.791 65.5156 30.916 66.8828 34.627 67.0781H82.9668C89.1191 67.6641 92.4883 71.0332 93.0742 77.1855C92.9766 79.9199 91.9512 82.2148 89.998 84.0703C88.0449 85.8281 85.7012 86.707 82.9668 86.707H36.2383H29.5C22.6641 86.3164 17.0488 83.7285 12.6543 78.9434C8.25977 74.0605 5.08594 68.543 3.13281 62.3906C1.27734 56.2383 0.349609 49.9395 0.349609 43.4941C0.349609 38.709 0.886719 33.9727 1.96094 29.2852C3.03516 24.5977 4.69531 20.1543 6.94141 15.9551C9.28516 11.6582 12.3613 7.99609 16.1699 4.96875C20.0762 1.94141 24.5195 0.378906 29.5 0.28125H32.2832H82.9668C89.1191 0.867188 92.4883 4.23633 93.0742 10.3887C93.0742 13.123 92.0488 15.418 89.998 17.2734C88.0449 19.0312 85.7012 19.9102 82.9668 19.9102H34.627Z" fill="#EC09F0"/>
<path d="M119.506 24.8621C119.506 23.0996 119.008 21.7203 118.011 20.7241C117.13 19.8812 116.096 19.4598 114.908 19.4598C113.759 19.4598 112.782 19.5939 111.977 19.8621C111.172 20.1303 110.464 20.5709 109.851 21.1839C108.548 22.41 107.897 24.1533 107.897 26.4138V37.3908C107.897 37.9272 107.705 38.3295 107.322 38.5977C106.939 38.8659 106.517 39 106.057 39C105.598 39 105.215 38.8659 104.908 38.5977C104.602 38.2912 104.448 37.8889 104.448 37.3908V9.34483C104.448 8.80843 104.64 8.40613 105.023 8.13793C105.406 7.86973 105.789 7.73563 106.172 7.73563C106.632 7.73563 107.034 7.86973 107.379 8.13793C107.724 8.36782 107.897 8.77011 107.897 9.34483V20.8966C108.433 19.5556 109.429 18.5211 110.885 17.7931C112.226 17.1034 113.548 16.7586 114.851 16.7586C116.192 16.7586 117.322 16.931 118.241 17.2759C119.161 17.5824 120.004 18.0421 120.77 18.6552C122.303 20.1111 123.069 22.2567 123.069 25.092V37.3908C123.069 37.9272 122.858 38.3295 122.437 38.5977C122.054 38.8659 121.651 39 121.23 39C120.77 39 120.368 38.8659 120.023 38.5977C119.678 38.2912 119.506 37.8889 119.506 37.3908V24.8621ZM140.135 25.7241C140.939 25.7241 141.744 25.7433 142.549 25.7816V23.9425C142.549 20.954 140.882 19.4598 137.549 19.4598C136.054 19.4598 134.962 19.5939 134.273 19.8621C133.047 20.3218 132.166 20.7241 131.629 21.069C131.093 21.3755 130.671 21.5287 130.365 21.5287C130.058 21.5287 129.771 21.4138 129.503 21.1839C129.235 20.954 129.1 20.6475 129.1 20.2644C129.1 19.9579 129.273 19.6513 129.618 19.3448C131.418 17.6207 134.081 16.7586 137.606 16.7586C141.667 16.7586 144.273 18.1188 145.422 20.8391C145.805 21.7969 145.997 22.908 145.997 24.1724L145.882 37.4483C145.882 37.9464 145.71 38.3295 145.365 38.5977C145.02 38.8659 144.637 39 144.215 39C143.794 39 143.411 38.8851 143.066 38.6552C142.721 38.4253 142.549 38.0421 142.549 37.5057V35.4368C141.629 37.4291 139.982 38.6743 137.606 39.1724C136.878 39.364 136.054 39.4598 135.135 39.4598C134.215 39.4598 133.296 39.3257 132.376 39.0575C131.495 38.7893 130.71 38.3678 130.02 37.7931C128.602 36.6054 127.894 34.9962 127.894 32.9655C127.894 28.1379 131.974 25.7241 140.135 25.7241ZM142.549 28.3103C141.936 28.387 141.227 28.4253 140.422 28.4253C139.618 28.4253 138.794 28.4444 137.951 28.4828C137.108 28.4828 136.303 28.5785 135.537 28.7701C134.771 28.9234 134.081 29.1724 133.468 29.5172C132.166 30.2069 131.476 31.3372 131.399 32.908C131.399 34.1341 131.897 35.092 132.894 35.7816C133.66 36.3946 134.752 36.7203 136.169 36.7586C137.894 36.7586 139.388 36.2031 140.652 35.092C141.802 34.0192 142.434 32.41 142.549 30.2644V28.3103ZM164.087 37.7356C164.087 38.8851 162.727 39.4598 160.007 39.4598C157.976 39.4598 156.539 38.9042 155.696 37.7931C154.777 36.6054 154.279 34.6513 154.202 31.931V19.8621H151.673C151.213 19.8621 150.85 19.728 150.581 19.4598C150.313 19.1533 150.179 18.8467 150.179 18.5402C150.179 18.2337 150.294 17.9272 150.524 17.6207C150.754 17.3142 151.137 17.1609 151.673 17.1609H154.432L154.662 10.954C154.738 10.4943 154.949 10.1494 155.294 9.91954C155.639 9.65134 156.003 9.51724 156.386 9.51724C156.769 9.51724 157.095 9.63218 157.363 9.86207C157.631 10.092 157.765 10.4559 157.765 10.954V17.1609H161.731C162.191 17.1609 162.535 17.3142 162.765 17.6207C163.033 17.9272 163.168 18.2337 163.168 18.5402C163.168 18.9234 163.033 19.249 162.765 19.5172C162.535 19.7471 162.191 19.8621 161.731 19.8621H157.765V30.0345C157.765 32.8697 157.861 34.5939 158.053 35.2069C158.244 35.7816 158.551 36.1839 158.972 36.4138C159.394 36.6437 159.911 36.7586 160.524 36.7586L162.765 36.5862C163.187 36.5862 163.512 36.7203 163.742 36.9885C163.972 37.2567 164.087 37.5057 164.087 37.7356ZM179.468 37.7356C179.468 38.8851 178.108 39.4598 175.387 39.4598C173.357 39.4598 171.92 38.9042 171.077 37.7931C170.158 36.6054 169.659 34.6513 169.583 31.931V19.8621H167.054C166.594 19.8621 166.23 19.728 165.962 19.4598C165.694 19.1533 165.56 18.8467 165.56 18.5402C165.56 18.2337 165.675 17.9272 165.905 17.6207C166.135 17.3142 166.518 17.1609 167.054 17.1609H169.813L170.043 10.954C170.119 10.4943 170.33 10.1494 170.675 9.91954C171.02 9.65134 171.384 9.51724 171.767 9.51724C172.15 9.51724 172.476 9.63218 172.744 9.86207C173.012 10.092 173.146 10.4559 173.146 10.954V17.1609H177.112C177.571 17.1609 177.916 17.3142 178.146 17.6207C178.414 17.9272 178.548 18.2337 178.548 18.5402C178.548 18.9234 178.414 19.249 178.146 19.5172C177.916 19.7471 177.571 19.8621 177.112 19.8621H173.146V30.0345C173.146 32.8697 173.242 34.5939 173.433 35.2069C173.625 35.7816 173.932 36.1839 174.353 36.4138C174.774 36.6437 175.292 36.7586 175.905 36.7586L178.146 36.5862C178.568 36.5862 178.893 36.7203 179.123 36.9885C179.353 37.2567 179.468 37.5057 179.468 37.7356ZM194.849 37.7356C194.849 38.8851 193.489 39.4598 190.768 39.4598C188.738 39.4598 187.301 38.9042 186.458 37.7931C185.538 36.6054 185.04 34.6513 184.964 31.931V19.8621H182.435C181.975 19.8621 181.611 19.728 181.343 19.4598C181.075 19.1533 180.941 18.8467 180.941 18.5402C180.941 18.2337 181.056 17.9272 181.286 17.6207C181.515 17.3142 181.899 17.1609 182.435 17.1609H185.194L185.423 10.954C185.5 10.4943 185.711 10.1494 186.056 9.91954C186.401 9.65134 186.764 9.51724 187.148 9.51724C187.531 9.51724 187.856 9.63218 188.125 9.86207C188.393 10.092 188.527 10.4559 188.527 10.954V17.1609H192.492C192.952 17.1609 193.297 17.3142 193.527 17.6207C193.795 17.9272 193.929 18.2337 193.929 18.5402C193.929 18.9234 193.795 19.249 193.527 19.5172C193.297 19.7471 192.952 19.8621 192.492 19.8621H188.527V30.0345C188.527 32.8697 188.623 34.5939 188.814 35.2069C189.006 35.7816 189.312 36.1839 189.734 36.4138C190.155 36.6437 190.673 36.7586 191.286 36.7586L193.527 36.5862C193.948 36.5862 194.274 36.7203 194.504 36.9885C194.734 37.2567 194.849 37.5057 194.849 37.7356ZM202.873 9.57471C202.873 10.1877 202.663 10.6858 202.241 11.069C201.82 11.4521 201.226 11.6437 200.46 11.6437C199.693 11.6437 199.099 11.4521 198.678 11.069C198.256 10.6858 198.046 10.1877 198.046 9.57471C198.046 9.03831 198.256 8.57854 198.678 8.1954C199.099 7.81226 199.693 7.62069 200.46 7.62069C201.264 7.62069 201.858 7.81226 202.241 8.1954C202.663 8.57854 202.873 9.03831 202.873 9.57471ZM198.735 19C198.735 18.4253 198.927 17.9847 199.31 17.6782C199.693 17.3333 200.038 17.1609 200.345 17.1609C200.651 17.1609 200.9 17.2184 201.092 17.3333C201.283 17.41 201.475 17.5441 201.666 17.7356C202.088 18.0038 202.299 18.4253 202.299 19V37.2759C202.299 37.8506 202.107 38.2912 201.724 38.5977C201.341 38.8659 200.919 39 200.46 39C200 39 199.597 38.8659 199.253 38.5977C198.908 38.2912 198.735 37.8506 198.735 37.2759V19ZM209.087 18.8276C209.087 18.3295 209.279 17.9272 209.662 17.6207C210.045 17.3142 210.428 17.1609 210.811 17.1609C211.616 17.1609 212.133 17.4674 212.363 18.0805C212.593 18.6935 212.65 19.613 212.535 20.8391C212.995 19.6897 213.991 18.6935 215.524 17.8506C216.865 17.1226 218.187 16.7586 219.489 16.7586C220.83 16.7586 221.961 16.931 222.88 17.2759C223.8 17.5824 224.643 18.0805 225.409 18.7701C226.941 20.2261 227.708 22.3716 227.708 25.2069V37.3908C227.708 37.9272 227.497 38.3295 227.075 38.5977C226.692 38.8659 226.29 39 225.869 39C225.409 39 225.006 38.8659 224.662 38.5977C224.317 38.2912 224.144 37.8889 224.144 37.3908V24.977C224.144 23.1762 223.646 21.7969 222.65 20.8391C221.731 19.9195 220.581 19.4598 219.202 19.4598C217.363 19.4598 215.792 19.9962 214.489 21.069C213.187 22.2184 212.535 23.9808 212.535 26.3563V37.3908C212.535 37.9272 212.344 38.3295 211.961 38.5977C211.577 38.8659 211.156 39 210.696 39C210.236 39 209.853 38.8659 209.547 38.5977C209.24 38.2912 209.087 37.8889 209.087 37.3908V18.8276ZM243.164 19.5172C238.873 19.5172 236.728 22.3716 236.728 28.0805C236.728 30.7625 237.398 32.8697 238.739 34.4023C239.889 35.7433 241.383 36.433 243.222 36.4713C245.099 36.4713 246.689 35.7625 247.992 34.3448C249.371 32.8506 250.061 30.8008 250.061 28.1954C250.061 24.2874 248.835 21.6437 246.383 20.2644C245.54 19.7663 244.467 19.5172 243.164 19.5172ZM242.245 16.7586C246 16.7586 248.643 18.1954 250.176 21.069V18.6552C250.252 18.1954 250.444 17.8314 250.751 17.5632C251.057 17.295 251.421 17.1609 251.843 17.1609C252.264 17.1609 252.647 17.3142 252.992 17.6207C253.337 17.9272 253.509 18.3295 253.509 18.8276V39.4598C253.509 42.4483 252.551 44.6705 250.636 46.1264C248.912 47.5057 246.421 48.1954 243.164 48.1954C240.252 48.1954 238.069 47.6973 236.613 46.7011C235.463 45.8582 234.889 45.1686 234.889 44.6322C234.889 44.249 235.003 43.9234 235.233 43.6552C235.502 43.4253 235.789 43.3103 236.095 43.3103C236.44 43.3103 236.766 43.4061 237.072 43.5977C237.379 43.8276 237.743 44.0383 238.164 44.2299C238.586 44.4215 239.007 44.5939 239.429 44.7471C240.54 45.1303 241.67 45.3218 242.82 45.3218C244.007 45.3218 245.023 45.2261 245.866 45.0345C246.747 44.8429 247.494 44.5172 248.107 44.0575C249.41 43.2146 250.061 41.7586 250.061 39.6897V34.6897C248.95 36.7969 247.187 38.1571 244.774 38.7701C244.007 38.9234 243.26 39 242.532 39C239.352 39 236.919 37.908 235.233 35.7241C233.662 33.7701 232.877 31.2605 232.877 28.1954C232.877 24.9387 233.662 22.2759 235.233 20.2069C236.881 17.908 239.218 16.7586 242.245 16.7586Z" fill="#020202"/>
<path d="M169.04 80.8C169.04 81.2267 168.56 81.44 167.6 81.44C165.947 81.44 164.547 80.7867 163.4 79.48C163.213 79.2933 163.067 79.2 162.96 79.2C162.88 79.2 162.747 79.28 162.56 79.44C160.827 80.7733 158.88 81.44 156.72 81.44C155.2 81.44 153.867 80.9733 152.72 80.04C151.573 79.08 151 77.8533 151 76.36C151 74.4667 151.827 73.0267 153.48 72.04C154.947 71.1867 157.24 70.52 160.36 70.04C161.107 69.9067 161.613 69.8133 161.88 69.76C162.227 69.7333 162.4 69.5467 162.4 69.2V65.52C162.4 64.4267 162.027 63.56 161.28 62.92C160.56 62.28 159.587 61.96 158.36 61.96C157.16 61.96 156.067 62.3333 155.08 63.08C154.12 63.8267 153.507 64.8667 153.24 66.2C153.16 66.6 152.933 66.8 152.56 66.8C152.213 66.8 152.04 66.6 152.04 66.2V63.2C152.04 62.7467 152.187 62.4133 152.48 62.2C153.893 61.1067 155.92 60.56 158.56 60.56C161.2 60.56 163.053 61.1333 164.12 62.28C165.187 63.4267 165.72 64.9067 165.72 66.72V77.4C165.72 78.2533 165.987 78.9467 166.52 79.48C167.08 80.0133 167.733 80.28 168.48 80.28C168.853 80.28 169.04 80.4533 169.04 80.8ZM162.32 77.08V72.08C162.32 71.68 162.147 71.48 161.8 71.48C161.773 71.48 161.733 71.48 161.68 71.48C156.907 72.0667 154.52 73.5333 154.52 75.88C154.52 76.9733 154.88 77.84 155.6 78.48C156.32 79.0933 157.12 79.4 158 79.4C158.907 79.4 159.693 79.2267 160.36 78.88C161.053 78.5333 161.547 78.1867 161.84 77.84C162.16 77.4933 162.32 77.24 162.32 77.08ZM188.79 72.28C188.79 69.08 188.15 66.6 186.87 64.84C185.59 63.08 183.99 62.2 182.07 62.2C180.176 62.2 178.75 62.72 177.79 63.76C176.856 64.7733 176.39 65.8533 176.39 67V75.04C176.39 76.32 176.95 77.4533 178.07 78.44C179.216 79.4 180.47 79.88 181.83 79.88C183.963 79.88 185.656 79.2133 186.91 77.88C188.163 76.5467 188.79 74.68 188.79 72.28ZM175.75 60.56C176.176 60.56 176.39 60.8667 176.39 61.48V62.24C176.39 62.56 176.496 62.6267 176.71 62.44C176.95 62.2533 177.27 62.04 177.67 61.8C178.07 61.5333 178.683 61.2667 179.51 61C180.336 60.7067 181.176 60.56 182.03 60.56C185.15 60.56 187.63 61.5067 189.47 63.4C191.336 65.2667 192.27 67.7733 192.27 70.92C192.27 74.0667 191.296 76.6133 189.35 78.56C187.403 80.48 185.03 81.44 182.23 81.44C180.176 81.44 178.39 80.88 176.87 79.76C176.736 79.6533 176.616 79.64 176.51 79.72C176.43 79.8 176.39 79.9333 176.39 80.12V90.36C176.39 91.32 176.923 91.8667 177.99 92L178.67 92.08C178.99 92.1067 179.15 92.2933 179.15 92.64C179.15 92.9867 178.95 93.16 178.55 93.16L174.75 93L170.43 93.16C170.03 93.16 169.83 92.9867 169.83 92.64C169.83 92.2933 169.99 92.1067 170.31 92.08L171.43 92C171.963 91.9467 172.403 91.7733 172.75 91.48C173.096 91.2133 173.27 90.84 173.27 90.36V63.72C173.27 63.1867 173.15 62.8267 172.91 62.64C172.696 62.4267 172.336 62.32 171.83 62.32H170.47C170.123 62.32 169.95 62.1467 169.95 61.8C169.95 61.4533 170.123 61.2533 170.47 61.2L175.67 60.56C175.696 60.56 175.723 60.56 175.75 60.56ZM213.633 72.28C213.633 69.08 212.993 66.6 211.713 64.84C210.433 63.08 208.833 62.2 206.913 62.2C205.02 62.2 203.593 62.72 202.633 63.76C201.7 64.7733 201.233 65.8533 201.233 67V75.04C201.233 76.32 201.793 77.4533 202.913 78.44C204.06 79.4 205.313 79.88 206.673 79.88C208.807 79.88 210.5 79.2133 211.753 77.88C213.007 76.5467 213.633 74.68 213.633 72.28ZM200.593 60.56C201.02 60.56 201.233 60.8667 201.233 61.48V62.24C201.233 62.56 201.34 62.6267 201.553 62.44C201.793 62.2533 202.113 62.04 202.513 61.8C202.913 61.5333 203.527 61.2667 204.353 61C205.18 60.7067 206.02 60.56 206.873 60.56C209.993 60.56 212.473 61.5067 214.313 63.4C216.18 65.2667 217.113 67.7733 217.113 70.92C217.113 74.0667 216.14 76.6133 214.193 78.56C212.247 80.48 209.873 81.44 207.073 81.44C205.02 81.44 203.233 80.88 201.713 79.76C201.58 79.6533 201.46 79.64 201.353 79.72C201.273 79.8 201.233 79.9333 201.233 80.12V90.36C201.233 91.32 201.767 91.8667 202.833 92L203.513 92.08C203.833 92.1067 203.993 92.2933 203.993 92.64C203.993 92.9867 203.793 93.16 203.393 93.16L199.593 93L195.273 93.16C194.873 93.16 194.673 92.9867 194.673 92.64C194.673 92.2933 194.833 92.1067 195.153 92.08L196.273 92C196.807 91.9467 197.247 91.7733 197.593 91.48C197.94 91.2133 198.113 90.84 198.113 90.36V63.72C198.113 63.1867 197.993 62.8267 197.753 62.64C197.54 62.4267 197.18 62.32 196.673 62.32H195.313C194.967 62.32 194.793 62.1467 194.793 61.8C194.793 61.4533 194.967 61.2533 195.313 61.2L200.513 60.56C200.54 60.56 200.567 60.56 200.593 60.56Z" fill="#020202"/>
<line x1="99" y1="71.5" x2="144" y2="71.5" stroke="black"/>
<line x1="235" y1="71.5" x2="280" y2="71.5" stroke="black"/>
</svg>
